<svg width="153" height="154" viewBox="0 0 153 154" fill="none" xmlns="http://www.w3.org/2000/svg">
<path d="M72.324 3.05573C74.887 1.48713 78.113 1.48712 80.676 3.05572L89.5229 8.47004C91.0136 9.38232 92.7619 9.78137 94.5008 9.60621L104.821 8.5666C107.811 8.26541 110.717 9.66508 112.346 12.1904L117.967 20.9071C118.914 22.3758 120.317 23.4939 121.959 24.0905L131.708 27.6316C134.533 28.6574 136.544 31.1796 136.916 34.1614L138.199 44.454C138.415 46.1882 139.193 47.804 140.414 49.0542L147.661 56.4745C149.761 58.6243 150.479 61.7693 149.52 64.6172L146.21 74.4471C145.652 76.1033 145.652 77.8967 146.21 79.5529L149.52 89.3828C150.479 92.2307 149.761 95.3757 147.661 97.5255L140.414 104.946C139.193 106.196 138.415 107.812 138.199 109.546L136.916 119.839C136.544 122.82 134.533 125.343 131.708 126.368L121.959 129.909C120.317 130.506 118.914 131.624 117.967 133.093L112.346 141.81C110.717 144.335 107.811 145.735 104.821 145.433L94.5008 144.394C92.7619 144.219 91.0136 144.618 89.5229 145.53L80.676 150.944C78.113 152.513 74.887 152.513 72.324 150.944L63.4771 145.53C61.9864 144.618 60.2381 144.219 58.4992 144.394L48.1793 145.433C45.1894 145.735 42.283 144.335 40.6543 141.81L35.0327 133.093C34.0855 131.624 32.6834 130.506 31.0408 129.909L21.2918 126.368C18.4673 125.343 16.456 122.82 16.0843 119.839L14.8015 109.546C14.5853 107.812 13.8072 106.196 12.5861 104.946L5.33892 97.5255C3.23931 95.3757 2.52148 92.2307 3.48042 89.3828L6.79037 79.5529C7.34807 77.8967 7.34807 76.1033 6.79037 74.4471L3.48042 64.6172C2.52148 61.7693 3.23932 58.6243 5.33892 56.4745L12.5861 49.0542C13.8072 47.804 14.5853 46.1882 14.8015 44.454L16.0843 34.1615C16.456 31.1796 18.4673 28.6574 21.2918 27.6316L31.0408 24.0905C32.6834 23.4939 34.0855 22.3758 35.0327 20.9071L40.6543 12.1904C42.283 9.66508 45.1894 8.26541 48.1793 8.5666L58.4992 9.6062C60.2381 9.78137 61.9864 9.38232 63.4771 8.47004L72.324 3.05573Z" fill="white"/>
<path d="M76.9573 107.322C93.8042 107.322 107.461 93.746 107.461 76.9993C107.461 60.2526 93.8042 46.6768 76.9573 46.6768C60.1103 46.6768 46.4531 60.2526 46.4531 76.9993C46.4531 93.746 60.1103 107.322 76.9573 107.322Z" fill="#103C3B"/>
<path d="M74.2666 26.6666L76.7425 20.2234H78.4937L80.9696 26.6666H79.2787L78.695 25.2058H76.5312L75.9575 26.6666H74.2666ZM76.7526 24.0152H78.4735L77.608 21.7741L76.7526 24.0152Z" fill="#1A1A1A"/>
<path d="M91.8623 28.6971L92.539 22.1157L94.0433 22.6291L93.5842 26.5768L95.3927 24.0521L95.69 23.191L96.9466 23.6198L96.7321 27.6614L98.8504 24.2695L100.355 24.7828L96.8312 30.3929L95.4129 29.9088L95.601 26.0378L93.2807 29.1811L91.8623 28.6971Z" fill="#1A1A1A"/>
<path d="M106.357 35.5431L112.293 31.9702L113.675 33.0395L111.648 39.6357L110.313 38.6034L110.755 37.0943L109.047 35.773L107.692 36.5755L106.357 35.5431ZM109.958 34.9687L111.316 36.0195L112.018 33.7225L109.958 34.9687Z" fill="#1A1A1A"/>
<path d="M118.561 47.3778L123.986 43.8538L125.759 46.5508C126.177 47.1873 126.317 47.7658 126.178 48.2862C126.039 48.8067 125.686 49.2511 125.119 49.6195C124.754 49.8566 124.373 49.9725 123.977 49.967C123.581 49.9615 123.21 49.8433 122.866 49.6126C122.856 49.7309 122.826 49.8379 122.777 49.9337C122.737 50.0313 122.668 50.1519 122.569 50.2953L121.522 51.884L120.597 50.4769L121.582 48.9764C121.667 48.8495 121.709 48.7306 121.709 48.6196C121.713 48.5049 121.668 48.375 121.573 48.2298L121.166 47.61L119.446 48.7263L118.561 47.3778ZM122.21 46.9314L122.865 47.9281C123.038 48.1907 123.236 48.3525 123.461 48.4138C123.695 48.477 123.947 48.421 124.216 48.2459C124.761 47.892 124.863 47.4555 124.522 46.9361L123.828 45.8808L122.21 46.9314Z" fill="#1A1A1A"/>
<path d="M126.035 62.0917L132.319 60.51L133.008 63.216C133.169 63.8496 133.197 64.41 133.094 64.8973C132.995 65.3829 132.741 65.7978 132.331 66.142C131.927 66.4846 131.341 66.7525 130.573 66.9456C129.494 67.2175 128.643 67.1667 128.022 66.7932C127.402 66.4262 126.97 65.761 126.724 64.7976L126.035 62.0917ZM127.642 63.3486L127.88 64.2797C127.965 64.6159 128.086 64.8849 128.241 65.0866C128.404 65.2932 128.637 65.4203 128.941 65.468C129.245 65.522 129.654 65.4844 130.168 65.355C130.688 65.224 131.075 65.0684 131.326 64.8881C131.586 64.7125 131.741 64.4945 131.793 64.2339C131.852 63.9781 131.836 63.6692 131.743 63.3071L131.507 62.376L127.642 63.3486Z" fill="#1A1A1A"/>
<path d="M128.292 79.2269L134.876 78.2642L134.745 79.8388L130.782 80.366L133.688 81.4888L134.601 81.5642L134.491 82.8803L130.497 83.6653L134.324 84.8743L134.194 86.4497L127.857 84.4318L127.981 82.9465L131.803 82.1768L128.168 80.7131L128.292 79.2269Z" fill="#1A1A1A"/>
<path d="M124.153 97.1873L130.089 99.7754L129.438 101.251L123.503 98.6626L124.153 97.1873Z" fill="#1A1A1A"/>
<path d="M116.8 109.356L121.568 113.719L120.627 114.735L115.908 114.143L118.76 116.752L117.655 117.945L112.887 113.581L113.834 112.558L118.545 113.143L115.702 110.541L116.8 109.356Z" fill="#1A1A1A"/>
<path d="M104.168 120.324L107.253 125.991L106.032 126.648L101.762 124.565L103.606 127.952L102.172 128.724L99.0869 123.058L100.317 122.396L104.582 124.47L102.743 121.09L104.168 120.324Z" fill="#1A1A1A"/>
<path d="M86.17 127.032L87.2369 133.387L85.6382 133.652L84.5713 127.297L86.17 127.032Z" fill="#1A1A1A"/>
<path d="M71.9 127.567L70.8332 133.922L69.4632 133.695L67.3808 129.444L66.743 133.244L65.1348 132.976L66.2016 126.622L67.5816 126.85L69.6656 131.091L70.3017 127.301L71.9 127.567Z" fill="#1A1A1A"/>
<path d="M52.837 121.372C53.8225 121.903 54.4377 122.552 54.6829 123.321C54.9249 124.096 54.7999 124.935 54.3081 125.838C53.794 126.783 53.1306 127.378 52.3179 127.623C51.5053 127.869 50.5886 127.717 49.5677 127.168C49.2195 126.981 48.9179 126.791 48.6629 126.601C48.402 126.408 48.167 126.202 47.958 125.983L48.619 124.769C48.8217 125 49.0521 125.207 49.3103 125.391C49.5626 125.572 49.8333 125.741 50.1225 125.896C50.7362 126.226 51.2645 126.321 51.7075 126.18C52.1413 126.042 52.5243 125.668 52.8564 125.057C53.1598 124.5 53.2522 124.015 53.1336 123.603C53.0117 123.196 52.6911 122.852 52.1718 122.573C51.8296 122.389 51.4853 122.264 51.1392 122.2L50.5547 123.273L51.7852 123.935L51.3013 124.824L48.876 123.519L50.4041 120.712C50.675 120.691 51.0192 120.724 51.4366 120.813C51.845 120.904 52.3117 121.09 52.837 121.372Z" fill="#1A1A1A"/>
<path d="M39.2704 110.529C40.0384 111.359 40.4124 112.186 40.3922 113.011C40.3626 113.836 39.9678 114.597 39.2075 115.292C38.4127 116.02 37.6027 116.371 36.7775 116.346C35.9477 116.317 35.142 115.88 34.3603 115.036C34.0922 114.747 33.8758 114.469 33.7112 114.203C33.542 113.931 33.3968 113.656 33.2754 113.377L34.3195 112.422C34.5371 113.011 34.8641 113.542 35.3004 114.013C35.7548 114.504 36.2074 114.756 36.6579 114.77C37.1039 114.778 37.5811 114.55 38.0896 114.085C38.5734 113.642 38.8175 113.197 38.8219 112.748C38.8263 112.3 38.6081 111.838 38.1673 111.362C37.9537 111.131 37.7226 110.921 37.474 110.732C37.2206 110.547 36.9518 110.389 36.6675 110.259L37.7189 109.297C37.9789 109.44 38.2355 109.609 38.4886 109.804C38.7417 109.997 39.0023 110.24 39.2704 110.529Z" fill="#1A1A1A"/>
<path d="M30.7653 97.1056C31.1885 98.0645 31.2647 98.9018 30.9942 99.6168C30.7236 100.332 30.0691 100.916 29.0306 101.368C27.9307 101.848 27.0306 101.942 26.3303 101.65C25.6301 101.358 25.0683 100.733 24.6451 99.7738C24.222 98.8149 24.1395 97.9806 24.3978 97.271C24.6561 96.5607 25.3352 95.9658 26.4351 95.4863C27.4735 95.0338 28.349 94.9507 29.0616 95.237C29.7742 95.524 30.3421 96.1466 30.7653 97.1056ZM29.5025 97.6558C29.2842 97.161 28.9839 96.8624 28.6015 96.76C28.2102 96.6538 27.7105 96.7331 27.1022 96.9986C26.4385 97.288 26.0227 97.6074 25.8548 97.9575C25.678 98.3039 25.6987 98.7248 25.9171 99.2197C26.1381 99.7199 26.4381 100.026 26.817 100.138C27.1871 100.246 27.704 100.156 28.3676 99.8662C28.9759 99.6007 29.3746 99.292 29.5637 98.9403C29.7439 98.5848 29.7236 98.1569 29.5025 97.6558Z" fill="#1A1A1A"/>
<path d="M26.9761 84.295L20.5165 84.8275L20.3843 83.2421L23.8197 81.2019L20.0942 79.762L19.9629 78.1866L26.4225 77.6548L26.5564 79.2602L22.8451 79.5657L25.5585 80.617L25.6325 81.5044L23.131 82.9959L26.8423 82.6896L26.9761 84.295Z" fill="#1A1A1A"/>
<path d="M27.4934 67.2602L21.21 65.6785L21.9932 62.604C22.1201 62.106 22.3255 61.7209 22.6094 61.4483C22.8869 61.1742 23.2146 61.002 23.5923 60.932C23.9717 60.8555 24.3729 60.8705 24.7957 60.977C25.225 61.085 25.5824 61.2713 25.868 61.5358C26.1536 61.8004 26.3479 62.1245 26.4509 62.5082C26.549 62.8838 26.5396 63.3012 26.4227 63.7602L26.0471 65.2344L27.8911 65.6987L27.4934 67.2602ZM24.8372 64.9299L25.1239 63.8049C25.2079 63.4751 25.1794 63.2064 25.0385 62.9989C24.8992 62.785 24.6799 62.6404 24.3807 62.565C24.0554 62.4832 23.7852 62.4978 23.5701 62.6087C23.3501 62.7116 23.1989 62.9247 23.1165 63.248L22.8176 64.4215L24.8372 64.9299Z" fill="#1A1A1A"/>
<path d="M33.2459 52.0038L29.1738 46.4192L30.1317 44.9619L36.9122 46.4255L35.9873 47.8326L34.4379 47.5195L33.2543 49.3203L34.1707 50.5967L33.2459 52.0038ZM32.3727 48.4849L33.3141 47.0526L30.9533 46.5472L32.3727 48.4849Z" fill="#1A1A1A"/>
<path d="M43.905 39.0904L39.9238 34.0058L41.02 33.1578L45.5762 34.5137L43.1962 31.474L44.4829 30.4785L48.4641 35.563L47.36 36.4172L42.8099 35.0692L45.1838 38.101L43.905 39.0904Z" fill="#1A1A1A"/>
<path d="M60.5428 29.53L59.7683 27.2872L56.2393 24.1863L57.8385 23.6405L60.0818 25.6993L60.5801 22.7049L62.1794 22.1592L61.3105 26.761L62.085 29.0037L60.5428 29.53Z" fill="#1A1A1A"/>
<path d="M65.4773 58.4091C66.75 58.4091 67.9659 58.6174 69.125 59.0341C70.2841 59.4432 71.3182 60.0985 72.2273 61C73.1364 61.8939 73.8523 63.072 74.375 64.5341C74.8977 65.9962 75.1591 67.7803 75.1591 69.8864C75.1667 71.8258 74.9394 73.5644 74.4773 75.1023C74.0152 76.6326 73.3523 77.9356 72.4886 79.0114C71.6326 80.0871 70.6023 80.9091 69.3977 81.4773C68.1932 82.0379 66.8485 82.3182 65.3636 82.3182C63.7273 82.3182 62.2841 82.0038 61.0341 81.375C59.7917 80.7386 58.7955 79.8826 58.0455 78.8068C57.303 77.7311 56.8598 76.5265 56.7159 75.1932H62.25C62.4242 75.9659 62.7917 76.5492 63.3523 76.9432C63.9129 77.3295 64.5833 77.5227 65.3636 77.5227C66.7879 77.5227 67.8523 76.9053 68.5568 75.6705C69.2614 74.4356 69.6136 72.7576 69.6136 70.6364H69.4773C69.1515 71.3333 68.6894 71.9318 68.0909 72.4318C67.5 72.9318 66.8144 73.3144 66.0341 73.5795C65.2538 73.8447 64.4318 73.9773 63.5682 73.9773C62.1742 73.9773 60.9432 73.6591 59.875 73.0227C58.8144 72.3864 57.9811 71.5114 57.375 70.3977C56.7765 69.2841 56.4735 68.0114 56.4659 66.5795C56.4583 64.9735 56.8333 63.5568 57.5909 62.3295C58.3485 61.0947 59.4053 60.1326 60.7614 59.4432C62.1174 58.7462 63.6894 58.4015 65.4773 58.4091ZM65.5114 62.7273C64.8144 62.7273 64.1932 62.8902 63.6477 63.2159C63.1098 63.5417 62.6856 63.9811 62.375 64.5341C62.0644 65.0871 61.9129 65.7083 61.9205 66.3977C61.928 67.0871 62.0833 67.7083 62.3864 68.2614C62.697 68.8144 63.1174 69.2538 63.6477 69.5795C64.1856 69.9053 64.7992 70.0682 65.4886 70.0682C66.0038 70.0682 66.4811 69.9735 66.9205 69.7841C67.3598 69.5947 67.7424 69.3333 68.0682 69C68.3939 68.6591 68.6477 68.2652 68.8295 67.8182C69.0189 67.3712 69.1098 66.8939 69.1023 66.3864C69.0947 65.7121 68.9356 65.0985 68.625 64.5455C68.3144 63.9924 67.8864 63.553 67.3409 63.2273C66.803 62.8939 66.1932 62.7273 65.5114 62.7273ZM87.8722 82.5682C85.8419 82.5682 84.0919 82.0871 82.6222 81.125C81.1525 80.1553 80.0199 78.7652 79.2244 76.9545C78.429 75.1364 78.035 72.9508 78.0426 70.3977C78.0502 67.8447 78.4479 65.678 79.2358 63.8977C80.0313 62.1098 81.16 60.75 82.6222 59.8182C84.0919 58.8788 85.8419 58.4091 87.8722 58.4091C89.9025 58.4091 91.6525 58.8788 93.1222 59.8182C94.5994 60.75 95.7358 62.1098 96.5312 63.8977C97.3267 65.6856 97.7206 67.8523 97.7131 70.3977C97.7131 72.9583 97.3153 75.1477 96.5199 76.9659C95.7244 78.7841 94.5919 80.1742 93.1222 81.1364C91.66 82.0909 89.91 82.5682 87.8722 82.5682ZM87.8722 77.9659C89.0843 77.9659 90.0653 77.3485 90.8153 76.1136C91.5653 74.8712 91.9366 72.9659 91.929 70.3977C91.929 68.7159 91.7585 67.3295 91.4176 66.2386C91.0767 65.1402 90.6032 64.322 89.9972 63.7841C89.3911 63.2462 88.6828 62.9773 87.8722 62.9773C86.6676 62.9773 85.6941 63.5871 84.9517 64.8068C84.2093 66.0189 83.8343 67.8826 83.8267 70.3977C83.8191 72.1023 83.982 73.5152 84.3153 74.6364C84.6563 75.7576 85.1335 76.5947 85.7472 77.1477C86.3608 77.6932 87.0691 77.9659 87.8722 77.9659Z" fill="white"/>
<path d="M64.858 97H60.8256V86.0909H64.8526C65.9641 86.0909 66.9212 86.3093 67.7237 86.7461C68.5298 87.1793 69.1513 87.8043 69.5881 88.6211C70.0249 89.4343 70.2433 90.4073 70.2433 91.5401C70.2433 92.6765 70.0249 93.6531 69.5881 94.4698C69.1548 95.2866 68.5352 95.9134 67.729 96.3501C66.9229 96.7834 65.9659 97 64.858 97ZM63.4624 94.7521H64.7567C65.3675 94.7521 65.8842 94.6491 66.3068 94.4432C66.733 94.2337 67.0543 93.8945 67.271 93.4258C67.4911 92.9535 67.6012 92.3249 67.6012 91.5401C67.6012 90.7553 67.4911 90.1303 67.271 89.6651C67.0508 89.1964 66.7259 88.859 66.2962 88.6531C65.87 88.4435 65.3445 88.3388 64.7195 88.3388H63.4624V94.7521ZM74.0891 97.1385C73.5671 97.1385 73.1037 97.0515 72.6989 96.8775C72.2976 96.6999 71.9798 96.4336 71.7454 96.0785C71.5146 95.7198 71.3991 95.2706 71.3991 94.7308C71.3991 94.2763 71.479 93.8928 71.6388 93.5803C71.7987 93.2678 72.0188 93.0138 72.2994 92.8185C72.5799 92.6232 72.9031 92.4759 73.2688 92.3764C73.6346 92.2734 74.0252 92.2042 74.4407 92.1687C74.9059 92.1261 75.2805 92.0817 75.5646 92.0355C75.8487 91.9858 76.0547 91.9165 76.1825 91.8278C76.3139 91.7354 76.3796 91.6058 76.3796 91.4389V91.4123C76.3796 91.1388 76.2855 90.9276 76.0973 90.7784C75.9091 90.6293 75.6552 90.5547 75.3356 90.5547C74.9911 90.5547 74.7141 90.6293 74.5046 90.7784C74.2951 90.9276 74.1619 91.1335 74.1051 91.3963L71.7028 91.3111C71.7738 90.8139 71.9567 90.37 72.2514 89.9794C72.5497 89.5852 72.9581 89.2763 73.4766 89.0526C73.9986 88.8253 74.6254 88.7116 75.3569 88.7116C75.8789 88.7116 76.3601 88.7738 76.8004 88.8981C77.2408 89.0188 77.6243 89.1964 77.951 89.4308C78.2777 89.6616 78.5298 89.9457 78.7074 90.283C78.8885 90.6204 78.979 91.0057 78.979 91.4389V97H76.5288V95.8601H76.4648C76.3192 96.1371 76.1328 96.3714 75.9055 96.5632C75.6818 96.755 75.4173 96.8988 75.1119 96.9947C74.81 97.0906 74.4691 97.1385 74.0891 97.1385ZM74.8935 95.4339C75.174 95.4339 75.4261 95.3771 75.6499 95.2635C75.8771 95.1499 76.0582 94.9936 76.1932 94.7947C76.3281 94.5923 76.3956 94.358 76.3956 94.0916V93.3139C76.321 93.353 76.2305 93.3885 76.1239 93.4205C76.021 93.4524 75.9073 93.4826 75.783 93.511C75.6587 93.5394 75.5309 93.5643 75.3995 93.5856C75.2681 93.6069 75.142 93.6264 75.0213 93.6442C74.7763 93.6832 74.5668 93.7436 74.3928 93.8253C74.2223 93.907 74.0909 94.0135 73.9986 94.1449C73.9098 94.2727 73.8654 94.4254 73.8654 94.603C73.8654 94.8729 73.9613 95.0788 74.1531 95.2209C74.3484 95.3629 74.5952 95.4339 74.8935 95.4339ZM81.8714 100.068C81.5589 100.068 81.2642 100.043 80.9872 99.9936C80.7102 99.9474 80.4723 99.8853 80.2734 99.8072L80.8487 97.9162C81.1044 98.0014 81.3352 98.0511 81.5412 98.0653C81.7507 98.0795 81.93 98.0458 82.0792 97.9641C82.2319 97.886 82.3491 97.7457 82.4308 97.5433L82.532 97.2983L79.6236 88.8182H82.3509L83.8583 94.6562H83.9435L85.4723 88.8182H88.2156L85.1314 97.783C84.9822 98.2305 84.771 98.6246 84.4975 98.9656C84.2276 99.31 83.8778 99.5799 83.4482 99.7752C83.022 99.9705 82.4964 100.068 81.8714 100.068ZM96.3574 91.3164L93.9657 91.3803C93.9409 91.2099 93.8734 91.0589 93.7633 90.9276C93.6532 90.7926 93.5094 90.6879 93.3319 90.6133C93.1578 90.5352 92.9554 90.4961 92.7246 90.4961C92.4228 90.4961 92.1653 90.5565 91.9522 90.6772C91.7427 90.7979 91.6397 90.9613 91.6433 91.1673C91.6397 91.3271 91.7037 91.4656 91.835 91.5827C91.97 91.6999 92.2097 91.794 92.5542 91.8651L94.1309 92.1634C94.9476 92.3196 95.5549 92.5788 95.9526 92.9411C96.3539 93.3033 96.5563 93.7827 96.5598 94.3793C96.5563 94.9403 96.3894 95.4286 96.0591 95.8441C95.7324 96.2596 95.285 96.5827 94.7168 96.8136C94.1486 97.0408 93.4988 97.1545 92.7672 97.1545C91.5989 97.1545 90.6774 96.9148 90.0027 96.4354C89.3315 95.9524 88.948 95.3061 88.8521 94.4964L91.4249 94.4325C91.4817 94.7308 91.6291 94.9581 91.867 95.1143C92.1049 95.2706 92.4086 95.3487 92.7779 95.3487C93.1117 95.3487 93.3833 95.2866 93.5929 95.1623C93.8024 95.038 93.9089 94.8729 93.9125 94.6669C93.9089 94.4822 93.8272 94.3349 93.6674 94.2248C93.5076 94.1112 93.2573 94.0224 92.9164 93.9585L91.4888 93.6868C90.6685 93.5376 90.0577 93.2624 89.6564 92.8612C89.2551 92.4563 89.0563 91.9414 89.0598 91.3164C89.0563 90.7695 89.2019 90.3026 89.4966 89.9155C89.7914 89.5249 90.2104 89.2266 90.7537 89.0206C91.2971 88.8146 91.938 88.7116 92.6767 88.7116C93.7846 88.7116 94.6582 88.9442 95.2974 89.4094C95.9366 89.8711 96.29 90.5067 96.3574 91.3164Z" fill="white"/>
</svg>
