<svg width="88" height="80" viewBox="0 0 88 80" fill="none" xmlns="http://www.w3.org/2000/svg">
<g id="Group_78_3" opacity="0.2">
<path id="Vector_462" d="M75.1181 66.1585C68.2531 73.0222 58.8032 77.2802 48.4422 77.2802C32.0426 77.2802 17.4652 66.6033 12.4648 51.0752L48.6753 40.3348C48.9083 40.2712 49.1202 40.1018 49.205 39.8687C49.3109 39.6357 49.3109 39.3815 49.205 39.1485L33.8859 4.61802C38.4838 2.71143 43.4206 1.69458 48.421 1.69458C58.782 1.69458 68.2319 5.95263 75.0969 12.8163C81.9618 19.6801 86.2206 29.1283 86.2206 39.4874C86.2418 49.8677 81.983 59.3159 75.1181 66.1585Z" fill="#2A574C"/>
<path id="Vector_463" d="M48.4418 79.0175C30.9827 79.0175 15.5154 67.472 10.5574 50.7364C10.4938 50.5246 10.515 50.2704 10.6209 50.0797C10.7269 49.8891 10.9175 49.7196 11.1294 49.656L47.2552 38.958L31.9785 4.53344C31.8938 4.3216 31.8726 4.08857 31.9574 3.87673C32.0421 3.66489 32.2116 3.49541 32.4235 3.38949C37.4663 1.14395 42.9328 0 48.4629 0C70.1596 0 87.9788 17.8372 88 39.5299C87.9576 61.1803 70.1384 79.0175 48.4418 79.0175ZM48.4418 1.71593C43.4414 1.71593 38.5045 2.71159 33.9067 4.63936L49.2257 39.1698C49.3317 39.4028 49.3317 39.657 49.2257 39.8901C49.1198 40.1231 48.9291 40.2926 48.696 40.3561L12.4855 51.0966C17.4859 66.6459 32.0633 77.3016 48.4629 77.3016C58.8239 77.3016 68.2739 73.0435 75.1388 66.1798C82.0038 59.3161 86.2626 49.8679 86.2626 39.5087C86.2626 29.1496 82.0038 19.7014 75.1388 12.8377C68.2527 5.97398 58.8028 1.71593 48.4418 1.71593Z" fill="#E3ECE7"/>
<path id="Vector_464" d="M2.63241 36.5218C2.63241 22.3283 10.6417 9.29995 23.249 2.8811L39.2041 35.971L3.71305 45.5251C2.99264 42.5805 2.63241 39.5723 2.63241 36.5218Z" fill="#2A574C"/>
<path id="Vector_465" d="M41.2174 36.8817C41.1115 37.1147 40.8996 37.2842 40.6454 37.3478L3.31186 47.4103C3.07879 47.4739 2.8457 47.4315 2.65501 47.3256C2.46432 47.2196 2.31602 47.029 2.25246 46.796C1.34137 43.4488 0.896385 39.9746 0.896385 36.5004C0.896385 21.3536 9.60471 7.47787 23.2499 0.910731C23.6736 0.698888 24.2033 0.889546 24.4152 1.31323L41.2174 36.1402C41.3234 36.3733 41.3234 36.6487 41.2174 36.8817ZM23.2287 2.88087C10.6218 9.3209 2.61264 22.3281 2.61264 36.5216C2.61264 39.5509 2.97283 42.5803 3.71442 45.5249L39.1833 35.9496L23.2287 2.88087Z" fill="#E3ECE7"/>
</g>
</svg>
